<svg xmlns="http://www.w3.org/2000/svg" xmlns:xlink="http://www.w3.org/1999/xlink" width="254" height="104" viewBox="0 0 254 104">
  <defs>
    <style>
      .cls-1 {
        fill: #787688;
        stroke: #821414;
        stroke-linejoin: round;
        stroke-width: 3px;
        filter: url(#filter);
      }

      .cls-1, .cls-2, .cls-3, .cls-4, .cls-5 {
        fill-rule: evenodd;
      }

      .cls-2 {
        fill: #6a6880;
      }

      .cls-3 {
        fill: #52505f;
      }

      .cls-4 {
        fill: #685252;
      }

      .cls-5 {
        fill: #6d5d5d;
      }
    </style>
    <filter id="filter" x="0" y="0" width="254" height="104" filterUnits="userSpaceOnUse">
      <feOffset result="offset" dy="6" in="SourceAlpha"/>
      <feGaussianBlur result="blur" stdDeviation="3.162"/>
      <feFlood result="flood" flood-color="#382622" flood-opacity="0.25"/>
      <feComposite result="composite" operator="in" in2="blur"/>
      <feBlend result="blend" in="SourceGraphic"/>
    </filter>
  </defs>
  <g style="fill: #787688; filter: url(#filter)">
    <path id="path" class="cls-1" d="M241.184,75.732s-15.69-20.919-41.366-26.613L109.711,29.135s-64.66-2.713-70.68-4.048C37.528,21.962,34.584,8.6,34.584,8.6l-14.16-3.14,4.447,16.488L13.345,25.2l9.069,7.824L11,47.937l14.16,3.14L36.375,39.5c1.8,0.673,53.475,18.691,58.241,21.171C98.039,62.448,104.5,64.8,104.5,64.8L194.61,84.78S228.252,87.632,241.184,75.732Z" style="stroke: inherit; filter: none; fill: inherit"/>
  </g>
  <use xlink:href="#path" style="stroke: #821414; filter: none; fill: none"/>
  <path id="Shape_22_copy" data-name="Shape 22 copy" class="cls-2" d="M99.993,41.8c2.943-11.055,9.716-12.747,9.718-12.667,0,0-64.66-2.713-70.68-4.048C37.528,21.962,34.584,8.6,34.584,8.6l-14.16-3.14,4.447,16.488L13.345,25.2l9.069,7.824L11,47.937l14.16,3.14L36.375,39.5c1.8,0.673,53.475,18.691,58.241,21.171C98.039,62.448,104.5,64.8,104.5,64.8S95.543,58.515,99.993,41.8Z"/>
  <path id="Shape_22_copy_2" data-name="Shape 22 copy 2" class="cls-3" d="M39.031,25.087C36.914,22.341,34.584,8.6,34.584,8.6l-14.16-3.14,4.447,16.488L13.345,25.2l9.069,7.824L11,47.937l14.16,3.14L36.375,39.5C36.354,39.414,29.357,36.783,31,30,32.353,24.412,39.688,25.093,39.031,25.087Z"/>
  <path id="Shape_27_copy" data-name="Shape 27 copy" class="cls-4" d="M78.5,31A1.5,1.5,0,1,1,77,32.5,1.5,1.5,0,0,1,78.5,31Zm-5,4A1.5,1.5,0,1,1,72,36.5,1.5,1.5,0,0,1,73.5,35Zm-6,1A1.5,1.5,0,1,1,66,37.5,1.5,1.5,0,0,1,67.5,36Zm0-5A1.5,1.5,0,1,1,66,32.5,1.5,1.5,0,0,1,67.5,31Zm-6-1A1.5,1.5,0,1,1,60,31.5,1.5,1.5,0,0,1,61.5,30Zm2-2A1.5,1.5,0,1,1,62,29.5,1.5,1.5,0,0,1,63.5,28Zm-7-1A1.5,1.5,0,1,1,55,28.5,1.5,1.5,0,0,1,56.5,27Zm0,6A1.5,1.5,0,1,1,55,34.5,1.5,1.5,0,0,1,56.5,33Zm25,8A1.5,1.5,0,1,1,80,42.5,1.5,1.5,0,0,1,81.5,41Zm0-5A1.5,1.5,0,1,1,80,37.5,1.5,1.5,0,0,1,81.5,36Zm-32-5A1.5,1.5,0,1,1,48,32.5,1.5,1.5,0,0,1,49.5,31Zm28,4A1.5,1.5,0,1,1,76,36.5,1.5,1.5,0,0,1,77.5,35Zm-3,4A1.5,1.5,0,1,1,73,40.5,1.5,1.5,0,0,1,74.5,39Zm-3-2A1.5,1.5,0,1,1,70,38.5,1.5,1.5,0,0,1,71.5,37Zm1-5A1.5,1.5,0,1,1,71,33.5,1.5,1.5,0,0,1,72.5,32Zm5,1A1.5,1.5,0,1,1,76,34.5,1.5,1.5,0,0,1,77.5,33Zm16-2A1.5,1.5,0,1,1,92,32.5,1.5,1.5,0,0,1,93.5,31Zm-2,5A1.5,1.5,0,1,1,90,37.5,1.5,1.5,0,0,1,91.5,36Zm-4-2A1.5,1.5,0,1,1,86,35.5,1.5,1.5,0,0,1,87.5,34Zm-1,2A1.5,1.5,0,1,1,85,37.5,1.5,1.5,0,0,1,86.5,36Zm1,2A1.5,1.5,0,1,1,86,39.5,1.5,1.5,0,0,1,87.5,38Zm-6,9A1.5,1.5,0,1,1,80,48.5,1.5,1.5,0,0,1,81.5,47Zm6-18A1.5,1.5,0,1,1,86,30.5,1.5,1.5,0,0,1,87.5,29Zm-4,4A1.5,1.5,0,1,1,82,34.5,1.5,1.5,0,0,1,83.5,33Zm-1-4A1.5,1.5,0,1,1,81,30.5,1.5,1.5,0,0,1,82.5,29Zm-5,0A1.5,1.5,0,1,1,76,30.5,1.5,1.5,0,0,1,77.5,29Zm-8-2A1.5,1.5,0,1,1,68,28.5,1.5,1.5,0,0,1,69.5,27Zm-2,2A1.5,1.5,0,1,1,66,30.5,1.5,1.5,0,0,1,67.5,29ZM90,30s-1.792-1.13-2,0-1.747,3.091-1,4a29.079,29.079,0,0,0,4,3h0l2-4A4.4,4.4,0,0,0,90,30ZM52,33s-1.792-1.13-2,0-1.747,3.091-1,4a29.079,29.079,0,0,0,4,3h0l2-4A4.4,4.4,0,0,0,52,33Zm47-2s-2.262.181-2,1,1.871,0.514,2,1,2.048-1.729,2-2S100.556,29.844,99,31Zm4,4s-2.04-3.463-3-3a2.979,2.979,0,0,0-2,2c-0.56,1.4-.729,1.624,0,2a5.279,5.279,0,0,0,3,0,5.9,5.9,0,0,0,2-1h0Zm5,8s-2.04-3.463-3-3a2.978,2.978,0,0,0-2,2c-0.56,1.4-.729,1.624,0,2a5.279,5.279,0,0,0,3,0,5.9,5.9,0,0,0,2-1h0Z"/>
  <path class="cls-5" d="M161,71s8.905,0.278,8-4-15.843-21.253-19-19a11.14,11.14,0,0,0-4,6s-11.375-1.876-12,3,4.059,11.364,8,13,14.944,3.365,17,3A2.1,2.1,0,0,0,161,71Z"/>
  <path class="cls-5" d="M190,66c-1.789,11.287,0,16.995,0,17l-9-2s-1.254-6.841,1-19c1.461-7.881,7-15,7-15l8,2S191.8,54.665,190,66Z"/>
  <path class="cls-5" d="M186,92"/>
</svg>
