<svg id="Group_1_copy" data-name="Group 1 copy" xmlns="http://www.w3.org/2000/svg" width="119" height="144" viewBox="0 0 119 144">
  <defs>
    <style>
      .cls-1 {
        fill: #462f29;
      }

      .cls-1, .cls-2, .cls-3, .cls-4 {
        fill-rule: evenodd;
      }

      .cls-2 {
        fill: #4e3631;
      }

      .cls-3 {
        fill: #462828;
      }

      .cls-4 {
        fill: #624640;
      }
    </style>
  </defs>
  <path class="cls-1" d="M67.17,47.315c21.21,7.443,39.447,15.492,39.91,29.43,0.083,2.5-4.023,12.2-4.885,14.558-5.671,15.517-30.545,20.979-55.559,12.2S5.94,75.032,11.611,59.516c0.921-2.521,4.016-14.079,5.87-16.051C27.035,33.3,46.221,39.963,67.17,47.315Z"/>
  <path id="Ellipse_3_copy" data-name="Ellipse 3 copy" class="cls-2" d="M71.4,33.642c25.014,8.778,40.7,28.472,35.025,43.989s-30.545,20.979-55.559,12.2-40.7-28.472-35.025-43.989S46.381,24.864,71.4,33.642Z"/>
  <path id="Ellipse_3_copy_2" data-name="Ellipse 3 copy 2" class="cls-1" d="M72.431,33.421c21.141,7.419,34.394,24.064,29.6,37.178S76.217,88.33,55.075,80.911s-34.394-24.064-29.6-37.178S51.289,26,72.431,33.421Z"/>
  <path id="Ellipse_3_copy_3" data-name="Ellipse 3 copy 3" class="cls-2" d="M74.862,29.122C96,36.54,109.256,53.185,104.464,66.3S78.648,84.031,57.506,76.612,23.112,52.548,27.9,39.434,53.72,21.7,74.862,29.122Z"/>
  <path id="Ellipse_3_copy_5" data-name="Ellipse 3 copy 5" class="cls-3" d="M69.821,45.417c4.094,1.436,9.24,3.776,10.392,6.5,0.563,1.329-.32,2.715-1.228,4.3-2.467,4.3-8.073,5.024-14.165,2.887s-9.328-7.707-7.947-11.486c0.726-1.987,2.277-4.429,4.914-4.914C64.166,42.265,66.932,44.4,69.821,45.417Z"/>
  <path id="Ellipse_3_copy_4" data-name="Ellipse 3 copy 4" class="cls-4" d="M71.446,42.461c6.092,2.138,9.911,6.934,8.53,10.713s-7.439,5.109-13.531,2.971-9.911-6.934-8.53-10.713S65.354,40.323,71.446,42.461Z"/>
  <path id="Shape_27_copy_2" data-name="Shape 27 copy 2" class="cls-3" d="M57.15,74.205a1.66,1.66,0,1,1,1.9-1.379A1.66,1.66,0,0,1,57.15,74.205Zm6.16-3.5a1.66,1.66,0,1,1,1.9-1.379A1.66,1.66,0,0,1,63.31,70.7Zm6.731-.05a1.66,1.66,0,1,1,1.9-1.379A1.66,1.66,0,0,1,70.041,70.653Zm-0.869,5.465a1.66,1.66,0,1,1,1.9-1.379A1.66,1.66,0,0,1,69.172,76.117Zm6.384,2.136a1.66,1.66,0,1,1,1.9-1.379A1.66,1.66,0,0,1,75.556,78.253Zm-2.534,1.838a1.66,1.66,0,1,1,1.9-1.379A1.66,1.66,0,0,1,73.022,80.092ZM80.5,82.4a1.66,1.66,0,1,1,1.9-1.379A1.66,1.66,0,0,1,80.5,82.4Zm1.043-6.558a1.66,1.66,0,1,1,1.9-1.379A1.66,1.66,0,0,1,81.542,75.844ZM55.61,62.755a1.66,1.66,0,1,1,1.9-1.379A1.66,1.66,0,0,1,55.61,62.755Zm-0.869,5.464a1.66,1.66,0,1,1,1.9-1.379A1.66,1.66,0,0,1,54.741,68.219Zm34.1,11.028a1.66,1.66,0,1,1,1.9-1.379A1.66,1.66,0,0,1,88.845,79.247ZM58.938,70.007a1.66,1.66,0,1,1,1.9-1.379A1.66,1.66,0,0,1,58.938,70.007Zm3.974-3.85a1.66,1.66,0,1,1,1.9-1.379A1.66,1.66,0,0,1,62.913,66.157Zm2.931,2.707a1.66,1.66,0,1,1,1.9-1.379A1.66,1.66,0,0,1,65.844,68.865Zm-1.962,5.291a1.66,1.66,0,1,1,1.9-1.379A1.66,1.66,0,0,1,63.882,74.155Zm-5.291-1.962a1.66,1.66,0,1,1,1.9-1.379A1.66,1.66,0,0,1,58.591,72.193Zm-17.834-.6a1.66,1.66,0,1,1,1.9-1.379A1.66,1.66,0,0,1,40.757,71.6Zm3.055-5.117a1.66,1.66,0,1,1,1.9-1.379A1.66,1.66,0,0,1,43.812,66.481Zm4.024,2.881a1.66,1.66,0,1,1,1.9-1.379A1.66,1.66,0,0,1,47.836,69.362Zm1.441-2.012a1.66,1.66,0,1,1,1.9-1.379A1.66,1.66,0,0,1,49.276,67.35Zm-0.745-2.36a1.66,1.66,0,1,1,1.9-1.379A1.66,1.66,0,0,1,48.531,64.99ZM56.653,56.2a1.66,1.66,0,1,1,1.9-1.379A1.66,1.66,0,0,1,56.653,56.2ZM46.966,74.826a1.66,1.66,0,1,1,1.9-1.379A1.66,1.66,0,0,1,46.966,74.826Zm5.067-3.676a1.66,1.66,0,1,1,1.9-1.379A1.66,1.66,0,0,1,52.033,71.15Zm0.4,4.546a1.66,1.66,0,1,1,1.9-1.379A1.66,1.66,0,0,1,52.431,75.7ZM57.9,76.565a1.66,1.66,0,1,1,1.9-1.379A1.66,1.66,0,0,1,57.9,76.565Zm8.4,3.576a1.66,1.66,0,1,1,1.9-1.379A1.66,1.66,0,0,1,66.291,80.141ZM68.825,78.3a1.66,1.66,0,1,1,1.9-1.379A1.66,1.66,0,0,1,68.825,78.3Zm-24.417-5s1.762,1.546,2.186.348,2.447-3.075,1.788-4.2a32.183,32.183,0,0,0-3.85-3.974h0L41.651,69.5A4.869,4.869,0,0,0,44.408,73.3ZM86.46,76.626s1.762,1.546,2.186.348,2.447-3.075,1.788-4.2a32.176,32.176,0,0,0-3.85-3.974h0L83.7,72.826A4.869,4.869,0,0,0,86.46,76.626ZM34.746,70.641s2.5,0.2,2.36-.745-1.955-.887-2.012-1.441-2.539,1.534-2.534,1.838S32.844,71.634,34.746,70.641Zm-3.676-5.067s1.628,4.14,2.757,3.8a3.3,3.3,0,0,0,2.534-1.838c0.855-1.431,1.079-1.648.348-2.186a5.842,5.842,0,0,0-3.279-.522,6.538,6.538,0,0,0-2.36.745h0ZM27,55.962s1.628,4.14,2.757,3.8a3.3,3.3,0,0,0,2.533-1.838c0.855-1.43,1.079-1.648.348-2.186a5.842,5.842,0,0,0-3.279-.522,6.537,6.537,0,0,0-2.36.745h0Z"/>
  <path id="Shape_27_copy_3" data-name="Shape 27 copy 3" class="cls-3" d="M55.15,97.205a1.66,1.66,0,1,1,1.9-1.379A1.66,1.66,0,0,1,55.15,97.205Zm6.16-3.5a1.66,1.66,0,1,1,1.9-1.379A1.66,1.66,0,0,1,61.31,93.7Zm6.731-.05a1.66,1.66,0,1,1,1.9-1.379A1.66,1.66,0,0,1,68.041,93.653Zm-0.869,5.465a1.66,1.66,0,1,1,1.9-1.379A1.66,1.66,0,0,1,67.172,99.117Zm6.384,2.136a1.66,1.66,0,1,1,1.9-1.378A1.659,1.659,0,0,1,73.556,101.253Zm-2.534,1.838a1.66,1.66,0,1,1,1.9-1.378A1.66,1.66,0,0,1,71.022,103.091ZM78.5,105.4a1.66,1.66,0,1,1,1.9-1.378A1.659,1.659,0,0,1,78.5,105.4Zm1.043-6.557a1.66,1.66,0,1,1,1.9-1.379A1.66,1.66,0,0,1,79.542,98.844ZM53.61,85.755a1.66,1.66,0,1,1,1.9-1.379A1.66,1.66,0,0,1,53.61,85.755Zm-0.869,5.465a1.66,1.66,0,1,1,1.9-1.379A1.66,1.66,0,0,1,52.741,91.219Zm34.1,11.028a1.66,1.66,0,1,1,1.9-1.379A1.661,1.661,0,0,1,86.845,102.247Zm-29.906-9.24a1.66,1.66,0,1,1,1.9-1.379A1.66,1.66,0,0,1,56.938,93.007Zm3.974-3.85a1.66,1.66,0,1,1,1.9-1.379A1.66,1.66,0,0,1,60.913,89.157Zm2.931,2.707a1.66,1.66,0,1,1,1.9-1.379A1.66,1.66,0,0,1,63.844,91.865Zm-1.962,5.291a1.66,1.66,0,1,1,1.9-1.379A1.66,1.66,0,0,1,61.882,97.155Zm-5.291-1.962a1.66,1.66,0,1,1,1.9-1.379A1.66,1.66,0,0,1,56.591,95.193Zm-17.834-.6a1.66,1.66,0,1,1,1.9-1.379A1.66,1.66,0,0,1,38.757,94.6Zm3.055-5.117a1.66,1.66,0,1,1,1.9-1.379A1.66,1.66,0,0,1,41.812,89.481Zm4.024,2.881a1.66,1.66,0,1,1,1.9-1.379A1.66,1.66,0,0,1,45.836,92.362Zm1.441-2.012a1.66,1.66,0,1,1,1.9-1.379A1.66,1.66,0,0,1,47.276,90.35Zm-0.745-2.36a1.66,1.66,0,1,1,1.9-1.379A1.66,1.66,0,0,1,46.531,87.99ZM54.653,79.2a1.66,1.66,0,1,1,1.9-1.379A1.66,1.66,0,0,1,54.653,79.2ZM44.966,97.826a1.66,1.66,0,1,1,1.9-1.379A1.66,1.66,0,0,1,44.966,97.826Zm5.067-3.676a1.66,1.66,0,1,1,1.9-1.379A1.66,1.66,0,0,1,50.033,94.15Zm0.4,4.546a1.66,1.66,0,1,1,1.9-1.379A1.66,1.66,0,0,1,50.431,98.7ZM55.9,99.565a1.66,1.66,0,1,1,1.9-1.379A1.66,1.66,0,0,1,55.9,99.565Zm8.4,3.576a1.66,1.66,0,1,1,1.9-1.378A1.66,1.66,0,0,1,64.291,103.141Zm2.534-1.838a1.66,1.66,0,1,1,1.9-1.378A1.66,1.66,0,0,1,66.825,101.3Zm-24.417-5s1.762,1.546,2.186.348,2.447-3.075,1.788-4.2a32.183,32.183,0,0,0-3.85-3.974h0L39.651,92.5A4.869,4.869,0,0,0,42.408,96.3ZM84.46,99.626s1.762,1.546,2.186.348,2.447-3.075,1.788-4.2a32.176,32.176,0,0,0-3.85-3.974h0L81.7,95.826A4.869,4.869,0,0,0,84.46,99.626ZM32.746,93.641s2.5,0.2,2.36-.745-1.955-.887-2.012-1.441-2.539,1.534-2.534,1.838S30.844,94.634,32.746,93.641Zm-3.676-5.067s1.628,4.14,2.757,3.8a3.3,3.3,0,0,0,2.534-1.838c0.855-1.431,1.079-1.648.348-2.186a5.842,5.842,0,0,0-3.279-.522,6.538,6.538,0,0,0-2.36.745h0ZM25,78.962s1.628,4.14,2.757,3.8a3.3,3.3,0,0,0,2.534-1.838c0.855-1.43,1.079-1.648.348-2.186a5.842,5.842,0,0,0-3.279-.522,6.537,6.537,0,0,0-2.36.745h0Z"/>
</svg>
