<svg id="Group_1_copy" data-name="Group 1 copy" xmlns="http://www.w3.org/2000/svg" xmlns:xlink="http://www.w3.org/1999/xlink" width="96" height="95" viewBox="0 0 96 95">
  <defs>
    <style>
      .cls-1, .cls-5 {
        fill: #698534;
      }

      .cls-1, .cls-2 {
        stroke: #821414;
        stroke-linejoin: round;
        stroke-width: 3px;
      }

      .cls-1, .cls-3, .cls-4, .cls-5, .cls-6, .cls-8 {
        fill-rule: evenodd;
      }

      .cls-1 {
        filter: url(#filter);
      }

      .cls-2, .cls-7 {
        fill: none;
      }

      .cls-2 {
        filter: url(#filter-2);
      }

      .cls-3 {
        fill: #9e924f;
      }

      .cls-4 {
        fill: #8f854e;
      }

      .cls-6 {
        fill: #4d6125;
      }

      .cls-7 {
        stroke: #bbad62;
        stroke-width: 6.35px;
      }

      .cls-8 {
        fill: #542e2e;
      }
    </style>
    <filter id="filter" x="4" y="10" width="71" height="83" filterUnits="userSpaceOnUse">
      <feOffset result="offset" dy="6" in="SourceAlpha"/>
      <feGaussianBlur result="blur" stdDeviation="3.162"/>
      <feFlood result="flood" flood-color="#382622" flood-opacity="0.25"/>
      <feComposite result="composite" operator="in" in2="blur"/>
      <feBlend result="blend" in="SourceGraphic"/>
    </filter>
    <filter id="filter-2" x="-1" y="22" width="49" height="48" filterUnits="userSpaceOnUse">
      <feOffset result="offset" dy="6" in="SourceAlpha"/>
      <feGaussianBlur result="blur" stdDeviation="3.162"/>
      <feFlood result="flood" flood-color="#382622" flood-opacity="0.25"/>
      <feComposite result="composite" operator="in" in2="blur"/>
      <feBlend result="blend" in="SourceGraphic"/>
    </filter>
  </defs>
  <g style="fill: #698534; filter: url(#filter)">
    <path id="Ellipse_4_copy" data-name="Ellipse 4 copy" class="cls-1" d="M15.579,21.239l9.779-5.86L35.98,33.1,26.2,38.964Zm1.1,1.834,9.779-5.86L37.078,34.938,27.3,40.8ZM29.2,32.184c9.283-5.563,22.239-1.01,28.937,10.169,4.374,7.3,5,15.62,2.321,22.064-0.643,1.935-4.767,3.977-7.988,5.907-2.859,1.713-7.152,4.7-8.88,4.588C36.25,74.678,29.155,70.233,24.519,62.5,17.82,51.318,19.915,37.746,29.2,32.184Z" style="stroke: inherit; filter: none; fill: inherit"/>
  </g>
  <use xlink:href="#Ellipse_4_copy" style="stroke: #821414; filter: none; fill: none"/>
  <g style="fill: none; filter: url(#filter-2)">
    <circle id="Ellipse_5_copy" data-name="Ellipse 5 copy" class="cls-2" cx="23.031" cy="39.203" r="9.031" style="stroke: inherit; filter: none; fill: inherit"/>
  </g>
  <use xlink:href="#Ellipse_5_copy" style="stroke: #821414; filter: none; fill: none"/>
  <path class="cls-3" d="M15.579,21.239l9.779-5.86L35.98,33.1,26.2,38.964Z"/>
  <path id="Rectangle_11_copy" data-name="Rectangle 11 copy" class="cls-4" d="M16.678,23.073l9.779-5.86L37.078,34.938,27.3,40.8Z"/>
  <path class="cls-5" d="M29.2,32.184c9.283-5.563,22.239-1.01,28.937,10.169,4.374,7.3,5,15.62,2.321,22.064-0.643,1.935-4.767,3.977-7.988,5.907-2.859,1.713-7.152,4.7-8.88,4.588C36.25,74.678,29.155,70.233,24.519,62.5,17.82,51.318,19.915,37.746,29.2,32.184Z"/>
  <path class="cls-6" d="M22,37L46,75l4-3L28,37H22Z"/>
  <path id="Shape_27_copy" data-name="Shape 27 copy" class="cls-6" d="M32,31L55,69l5-3L38,31H32Z"/>
  <path id="Shape_27_copy_2" data-name="Shape 27 copy 2" class="cls-6" d="M51,35L21.947,54.73,24,60,56,39Z"/>
  <path id="Shape_27_copy_3" data-name="Shape 27 copy 3" class="cls-6" d="M59,45L28,66l4,4L61,51Z"/>
  <path class="cls-6" d="M41.236,30.785l-9.285-4.4-9.779,5.86,0.117,9.9Z"/>
  <circle class="cls-7" cx="23.031" cy="39.203" r="9.031"/>
  <path id="Shape_27_copy_2-2" data-name="Shape 27 copy 2" class="cls-8" d="M54.15,69.205a1.66,1.66,0,1,1,1.9-1.379A1.66,1.66,0,0,1,54.15,69.205ZM52.61,57.755a1.66,1.66,0,1,1,1.9-1.379A1.66,1.66,0,0,1,52.61,57.755Zm-0.869,5.465a1.66,1.66,0,1,1,1.9-1.379A1.66,1.66,0,0,1,51.741,63.219Zm4.2,1.788a1.66,1.66,0,1,1,1.9-1.379A1.66,1.66,0,0,1,55.938,65.007Zm3.974-3.85a1.66,1.66,0,1,1,1.9-1.379A1.66,1.66,0,0,1,59.913,61.157Zm-4.322,6.036a1.66,1.66,0,1,1,1.9-1.379A1.66,1.66,0,0,1,55.591,67.193Zm-17.834-.6a1.66,1.66,0,1,1,1.9-1.379A1.66,1.66,0,0,1,37.757,66.6Zm3.055-5.117a1.66,1.66,0,1,1,1.9-1.379A1.66,1.66,0,0,1,40.812,61.481Zm4.024,2.881a1.66,1.66,0,1,1,1.9-1.379A1.66,1.66,0,0,1,44.836,64.362Zm1.441-2.012a1.66,1.66,0,1,1,1.9-1.379A1.66,1.66,0,0,1,46.276,62.35Zm-0.745-2.36a1.66,1.66,0,1,1,1.9-1.379A1.66,1.66,0,0,1,45.531,59.99ZM53.653,51.2a1.66,1.66,0,1,1,1.9-1.379A1.66,1.66,0,0,1,53.653,51.2ZM43.966,69.826a1.66,1.66,0,1,1,1.9-1.379A1.66,1.66,0,0,1,43.966,69.826Zm5.067-3.676a1.66,1.66,0,1,1,1.9-1.379A1.66,1.66,0,0,1,49.033,66.15Zm0.4,4.546a1.66,1.66,0,1,1,1.9-1.379A1.66,1.66,0,0,1,49.431,70.7Zm-8.023-2.4s1.762,1.546,2.186.348,2.447-3.075,1.788-4.2a32.183,32.183,0,0,0-3.85-3.974h0L38.651,64.5A4.869,4.869,0,0,0,41.408,68.3Zm-9.662-2.657s2.5,0.2,2.36-.745-1.955-.887-2.012-1.441-2.539,1.534-2.534,1.838S29.844,66.634,31.746,65.641Zm-3.676-5.067s1.628,4.14,2.757,3.8a3.3,3.3,0,0,0,2.534-1.838c0.855-1.43,1.079-1.648.348-2.186a5.842,5.842,0,0,0-3.279-.522,6.538,6.538,0,0,0-2.36.745h0ZM24,50.962s1.628,4.14,2.757,3.8a3.3,3.3,0,0,0,2.534-1.838c0.855-1.43,1.079-1.648.348-2.186a5.842,5.842,0,0,0-3.279-.522,6.537,6.537,0,0,0-2.36.745h0Z"/>
</svg>
