<svg xmlns="http://www.w3.org/2000/svg" xmlns:xlink="http://www.w3.org/1999/xlink" width="257" height="200" viewBox="0 0 257 200">
  <defs>
    <style>
      .cls-1, .cls-3 {
        fill: #787587;
      }

      .cls-1 {
        stroke: #821414;
        stroke-linejoin: round;
        stroke-width: 3px;
        filter: url(#filter);
      }

      .cls-1, .cls-2, .cls-3, .cls-4, .cls-5 {
        fill-rule: evenodd;
      }

      .cls-2 {
        fill: #918e9e;
      }

      .cls-4 {
        fill: #c3ab71;
      }

      .cls-5 {
        fill: #685252;
      }
    </style>
    <filter id="filter" x="-3" y="42" width="264" height="110" filterUnits="userSpaceOnUse">
      <feOffset result="offset" dy="6" in="SourceAlpha"/>
      <feGaussianBlur result="blur" stdDeviation="3.162"/>
      <feFlood result="flood" flood-color="#382622" flood-opacity="0.25"/>
      <feComposite result="composite" operator="in" in2="blur"/>
      <feBlend result="blend" in="SourceGraphic"/>
    </filter>
  </defs>
  <g style="fill: #787587; filter: url(#filter)">
    <path id="Shape_24_copy" data-name="Shape 24 copy" class="cls-1" d="M42.058,47.93L28.172,126.715l27.575,4.86,83.473-12.7,3.7-26.764L70.965,50.994Zm6.146,28.5,176.8,28.117s9.33,3.715,15.7,8.86,7.876,7.167,7.3,10.425-5.027,4.749-11.41,7.128-12.638,3.865-20.738,2.437L43.518,103.019s-29.513-11.014-32.269-12.8-2.781-1.506-2.781-1.506l1.909-10.833S29.146,73.07,48.2,76.429Z" style="stroke: inherit; filter: none; fill: inherit"/>
  </g>
  <use xlink:href="#Shape_24_copy" style="stroke: #821414; filter: none; fill: none"/>
  <path class="cls-2" d="M42.058,47.93L28.172,126.715l27.575,4.86,83.473-12.7,3.7-26.764L70.965,50.994Z"/>
  <path class="cls-3" d="M48.2,76.429l176.8,28.117s9.33,3.715,15.7,8.86,7.876,7.167,7.3,10.425-5.027,4.749-11.41,7.128-12.638,3.865-20.738,2.437L43.518,103.019s-29.513-11.014-32.269-12.8-2.781-1.506-2.781-1.506l1.909-10.833S29.146,73.07,48.2,76.429Z"/>
  <path class="cls-4" d="M213,133a97.118,97.118,0,0,1,0-16,41.688,41.688,0,0,1,4-14l-10-1a59.674,59.674,0,0,0-3.823,13.217A52.61,52.61,0,0,0,203,131Z"/>
  <path id="Shape_27_copy" data-name="Shape 27 copy" class="cls-5" d="M86.5,86A1.5,1.5,0,1,1,85,87.5,1.5,1.5,0,0,1,86.5,86Zm-5,4A1.5,1.5,0,1,1,80,91.5,1.5,1.5,0,0,1,81.5,90Zm-6,1A1.5,1.5,0,1,1,74,92.5,1.5,1.5,0,0,1,75.5,91Zm0-5A1.5,1.5,0,1,1,74,87.5,1.5,1.5,0,0,1,75.5,86Zm-6-1A1.5,1.5,0,1,1,68,86.5,1.5,1.5,0,0,1,69.5,85Zm2-2A1.5,1.5,0,1,1,70,84.5,1.5,1.5,0,0,1,71.5,83Zm-7-1A1.5,1.5,0,1,1,63,83.5,1.5,1.5,0,0,1,64.5,82Zm0,6A1.5,1.5,0,1,1,63,89.5,1.5,1.5,0,0,1,64.5,88Zm25,8A1.5,1.5,0,1,1,88,97.5,1.5,1.5,0,0,1,89.5,96Zm0-5A1.5,1.5,0,1,1,88,92.5,1.5,1.5,0,0,1,89.5,91Zm-32-5A1.5,1.5,0,1,1,56,87.5,1.5,1.5,0,0,1,57.5,86Zm28,4A1.5,1.5,0,1,1,84,91.5,1.5,1.5,0,0,1,85.5,90Zm-3,4A1.5,1.5,0,1,1,81,95.5,1.5,1.5,0,0,1,82.5,94Zm-3-2A1.5,1.5,0,1,1,78,93.5,1.5,1.5,0,0,1,79.5,92Zm1-5A1.5,1.5,0,1,1,79,88.5,1.5,1.5,0,0,1,80.5,87Zm5,1A1.5,1.5,0,1,1,84,89.5,1.5,1.5,0,0,1,85.5,88Zm16-2a1.5,1.5,0,1,1-1.5,1.5A1.5,1.5,0,0,1,101.5,86Zm-2,5A1.5,1.5,0,1,1,98,92.5,1.5,1.5,0,0,1,99.5,91Zm-4-2A1.5,1.5,0,1,1,94,90.5,1.5,1.5,0,0,1,95.5,89Zm-1,2A1.5,1.5,0,1,1,93,92.5,1.5,1.5,0,0,1,94.5,91Zm1,2A1.5,1.5,0,1,1,94,94.5,1.5,1.5,0,0,1,95.5,93Zm-6,9a1.5,1.5,0,1,1-1.5,1.5A1.5,1.5,0,0,1,89.5,102Zm6-18A1.5,1.5,0,1,1,94,85.5,1.5,1.5,0,0,1,95.5,84Zm-4,4A1.5,1.5,0,1,1,90,89.5,1.5,1.5,0,0,1,91.5,88Zm-1-4A1.5,1.5,0,1,1,89,85.5,1.5,1.5,0,0,1,90.5,84Zm-5,0A1.5,1.5,0,1,1,84,85.5,1.5,1.5,0,0,1,85.5,84Zm-8-2A1.5,1.5,0,1,1,76,83.5,1.5,1.5,0,0,1,77.5,82Zm-2,2A1.5,1.5,0,1,1,74,85.5,1.5,1.5,0,0,1,75.5,84ZM98,85s-1.792-1.129-2,0-1.747,3.091-1,4a29.079,29.079,0,0,0,4,3h0l2-4A4.4,4.4,0,0,0,98,85ZM60,88s-1.792-1.129-2,0-1.747,3.091-1,4a29.079,29.079,0,0,0,4,3h0l2-4A4.4,4.4,0,0,0,60,88Zm47-2s-2.262.181-2,1,1.871,0.514,2,1,2.048-1.729,2-2S108.556,84.844,107,86Zm4,4s-2.04-3.463-3-3a2.978,2.978,0,0,0-2,2c-0.56,1.4-.729,1.624,0,2a5.279,5.279,0,0,0,3,0,5.9,5.9,0,0,0,2-1h0Zm5,8s-2.04-3.463-3-3a2.978,2.978,0,0,0-2,2c-0.56,1.4-.729,1.624,0,2a5.279,5.279,0,0,0,3,0,5.9,5.9,0,0,0,2-1h0Z"/>
  <path id="Shape_27_copy_3" data-name="Shape 27 copy 3" class="cls-5" d="M72.375,77.312a1.5,1.5,0,1,1,1.672-1.3A1.5,1.5,0,0,1,72.375,77.312Zm5.453-3.357a1.5,1.5,0,1,1,1.672-1.3A1.5,1.5,0,0,1,77.828,73.955Zm6.077-.257a1.5,1.5,0,1,1,1.673-1.3A1.5,1.5,0,0,1,83.905,73.7ZM83.293,78.66a1.5,1.5,0,1,1,1.672-1.3A1.5,1.5,0,0,1,83.293,78.66Zm5.832,1.728a1.5,1.5,0,1,1,1.672-1.3A1.5,1.5,0,0,1,89.125,80.388Zm-2.23,1.74a1.5,1.5,0,1,1,1.672-1.3A1.5,1.5,0,0,1,86.895,82.128Zm6.825,1.85a1.5,1.5,0,1,1,1.673-1.3A1.5,1.5,0,0,1,93.719,83.978Zm0.735-5.955a1.5,1.5,0,1,1,1.672-1.3A1.5,1.5,0,0,1,94.455,78.023Zm-23.831-11a1.5,1.5,0,1,1,1.672-1.3A1.5,1.5,0,0,1,70.624,67.02Zm-0.613,4.962a1.5,1.5,0,1,1,1.672-1.3A1.5,1.5,0,0,1,70.011,71.982Zm31.146,8.884a1.5,1.5,0,1,1,1.672-1.3A1.5,1.5,0,0,1,101.157,80.866Zm-27.3-7.4a1.5,1.5,0,1,1,1.673-1.3A1.5,1.5,0,0,1,73.858,73.465Zm3.468-3.6A1.5,1.5,0,1,1,79,68.558,1.5,1.5,0,0,1,77.326,69.862Zm2.732,2.353a1.5,1.5,0,1,1,1.673-1.3A1.5,1.5,0,0,1,80.058,72.215Zm-1.605,4.84a1.5,1.5,0,1,1,1.673-1.3A1.5,1.5,0,0,1,78.453,77.055Zm-4.84-1.605a1.5,1.5,0,1,1,1.672-1.3A1.5,1.5,0,0,1,73.613,75.45Zm-16.124.024a1.5,1.5,0,1,1,1.672-1.3A1.5,1.5,0,0,1,57.489,75.474Zm2.6-4.717a1.5,1.5,0,1,1,1.672-1.3A1.5,1.5,0,0,1,60.086,70.757Zm3.725,2.475a1.5,1.5,0,1,1,1.673-1.3A1.5,1.5,0,0,1,63.811,73.232Zm1.238-1.862a1.5,1.5,0,1,1,1.673-1.3A1.5,1.5,0,0,1,65.048,71.369ZM64.3,69.262a1.5,1.5,0,1,1,1.672-1.3A1.5,1.5,0,0,1,64.3,69.262Zm7.058-8.2a1.5,1.5,0,1,1,1.672-1.3A1.5,1.5,0,0,1,71.359,61.065ZM63.2,78.194a1.5,1.5,0,1,1,1.672-1.3A1.5,1.5,0,0,1,63.2,78.194Zm4.46-3.48a1.5,1.5,0,1,1,1.672-1.3A1.5,1.5,0,0,1,67.658,74.714Zm0.5,4.092a1.5,1.5,0,1,1,1.672-1.3A1.5,1.5,0,0,1,68.161,78.807Zm4.962,0.613a1.5,1.5,0,1,1,1.672-1.3A1.5,1.5,0,0,1,73.123,79.419Zm7.695,2.965a1.5,1.5,0,1,1,1.672-1.3A1.5,1.5,0,0,1,80.817,82.385Zm2.23-1.74a1.5,1.5,0,1,1,1.672-1.3A1.5,1.5,0,0,1,83.047,80.645ZM60.84,76.9s1.64,1.341,1.985.245,2.113-2.854,1.483-3.847a29.077,29.077,0,0,0-3.6-3.468h0L58.23,73.55A4.4,4.4,0,0,0,60.84,76.9Zm38.081,1.679s1.64,1.341,1.985.245,2.113-2.854,1.482-3.847a29.058,29.058,0,0,0-3.6-3.468h0L96.311,75.23A4.4,4.4,0,0,0,98.921,78.575ZM52.03,74.8s2.267,0.1,2.108-.747-1.794-.739-1.862-1.237-2.244,1.465-2.23,1.74S50.344,75.756,52.03,74.8Zm-3.48-4.46s1.6,3.687,2.61,3.345a2.979,2.979,0,0,0,2.23-1.74c0.727-1.319.922-1.522,0.245-1.985a5.28,5.28,0,0,0-2.977-.368,5.908,5.908,0,0,0-2.107.747h0Zm-3.982-8.552s1.6,3.687,2.61,3.345a2.979,2.979,0,0,0,2.23-1.74c0.727-1.319.922-1.522,0.245-1.985a5.279,5.279,0,0,0-2.977-.368,5.909,5.909,0,0,0-2.108.747h0Z"/>
  <path id="Shape_27_copy_2" data-name="Shape 27 copy 2" class="cls-5" d="M159.15,118.205a1.66,1.66,0,1,1,1.9-1.378A1.66,1.66,0,0,1,159.15,118.205Zm6.16-3.5a1.66,1.66,0,1,1,1.9-1.379A1.661,1.661,0,0,1,165.31,114.7Zm6.731-.05a1.66,1.66,0,1,1,1.9-1.379A1.66,1.66,0,0,1,172.041,114.653Zm-0.869,5.464a1.66,1.66,0,1,1,1.9-1.378A1.659,1.659,0,0,1,171.172,120.117Zm6.384,2.136a1.66,1.66,0,1,1,1.9-1.378A1.659,1.659,0,0,1,177.556,122.253Zm-2.534,1.838a1.66,1.66,0,1,1,1.9-1.378A1.659,1.659,0,0,1,175.022,124.091Zm7.477,2.31a1.66,1.66,0,1,1,1.9-1.378A1.659,1.659,0,0,1,182.5,126.4Zm1.043-6.557a1.66,1.66,0,1,1,1.9-1.379A1.661,1.661,0,0,1,183.542,119.844Zm-25.932-13.09a1.66,1.66,0,1,1,1.9-1.378A1.659,1.659,0,0,1,157.61,106.754Zm-0.869,5.465a1.66,1.66,0,1,1,1.9-1.379A1.66,1.66,0,0,1,156.741,112.219Zm34.1,11.028a1.66,1.66,0,1,1,1.9-1.379A1.661,1.661,0,0,1,190.845,123.247Zm-29.907-9.24a1.66,1.66,0,1,1,1.9-1.378A1.659,1.659,0,0,1,160.938,114.007Zm3.975-3.85a1.66,1.66,0,1,1,1.9-1.378A1.66,1.66,0,0,1,164.913,110.157Zm2.931,2.708a1.66,1.66,0,1,1,1.9-1.379A1.66,1.66,0,0,1,167.844,112.865Zm-1.963,5.29a1.66,1.66,0,1,1,1.9-1.378A1.659,1.659,0,0,1,165.881,118.155Zm-5.29-1.962a1.66,1.66,0,1,1,1.9-1.378A1.66,1.66,0,0,1,160.591,116.193Zm-17.835-.595a1.66,1.66,0,1,1,1.9-1.379A1.661,1.661,0,0,1,142.756,115.6Zm3.056-5.117a1.66,1.66,0,1,1,1.9-1.379A1.66,1.66,0,0,1,145.812,110.481Zm4.023,2.881a1.66,1.66,0,1,1,1.9-1.379A1.66,1.66,0,0,1,149.835,113.362Zm1.441-2.012a1.66,1.66,0,1,1,1.9-1.379A1.661,1.661,0,0,1,151.276,111.35Zm-0.745-2.36a1.66,1.66,0,1,1,1.9-1.378A1.66,1.66,0,0,1,150.531,108.99Zm8.122-8.793a1.66,1.66,0,1,1,1.9-1.379A1.66,1.66,0,0,1,158.653,100.2Zm-9.687,18.629a1.66,1.66,0,1,1,1.9-1.378A1.659,1.659,0,0,1,148.966,118.826Zm5.067-3.676a1.66,1.66,0,1,1,1.9-1.379A1.66,1.66,0,0,1,154.033,115.15Zm0.4,4.546a1.66,1.66,0,1,1,1.9-1.379A1.66,1.66,0,0,1,154.431,119.7Zm5.464,0.869a1.66,1.66,0,1,1,1.9-1.379A1.66,1.66,0,0,1,159.9,120.565Zm8.4,3.576a1.66,1.66,0,1,1,1.9-1.378A1.66,1.66,0,0,1,168.291,124.141Zm2.534-1.838a1.66,1.66,0,1,1,1.9-1.378A1.66,1.66,0,0,1,170.825,122.3Zm-24.417-5s1.762,1.546,2.186.348,2.447-3.075,1.788-4.2a32.211,32.211,0,0,0-3.85-3.974h0l-2.881,4.024A4.867,4.867,0,0,0,146.408,117.3Zm42.052,3.327s1.762,1.546,2.186.348,2.447-3.075,1.788-4.2a32.211,32.211,0,0,0-3.85-3.974h0l-2.881,4.024A4.867,4.867,0,0,0,188.46,120.626Zm-51.715-5.985s2.5,0.2,2.36-.745-1.955-.887-2.012-1.44-2.539,1.534-2.533,1.838S134.844,115.634,136.745,114.641Zm-3.676-5.067s1.628,4.14,2.757,3.8a3.3,3.3,0,0,0,2.534-1.839c0.855-1.43,1.079-1.648.348-2.185a5.845,5.845,0,0,0-3.279-.522,6.54,6.54,0,0,0-2.36.745h0ZM129,99.962s1.628,4.14,2.758,3.8a3.3,3.3,0,0,0,2.533-1.838c0.856-1.43,1.079-1.648.348-2.186a5.845,5.845,0,0,0-3.279-.522,6.542,6.542,0,0,0-2.36.745h0Z"/>
</svg>
