<svg xmlns="http://www.w3.org/2000/svg" width="243" height="180" viewBox="0 0 243 180">
  <defs>
    <style>
      .cls-1, .cls-9 {
        fill: #818c96;
      }

      .cls-1, .cls-11, .cls-12, .cls-13, .cls-14, .cls-15, .cls-16, .cls-17, .cls-18, .cls-2, .cls-23, .cls-24, .cls-29, .cls-30, .cls-31, .cls-4, .cls-5, .cls-6, .cls-7 {
        fill-rule: evenodd;
      }

      .cls-10, .cls-2 {
        fill: #636d76;
      }

      .cls-3, .cls-4 {
        fill: #4a5762;
      }

      .cls-5 {
        fill: #57646f;
      }

      .cls-6 {
        fill: #424b52;
      }

      .cls-7 {
        fill: #a9bbc9;
      }

      .cls-11, .cls-8 {
        fill: #47515a;
      }

      .cls-12, .cls-27 {
        fill: #273743;
      }

      .cls-13 {
        fill: #414c55;
      }

      .cls-14 {
        fill: #2d3f4c;
      }

      .cls-15 {
        fill: #606d78;
      }

      .cls-16, .cls-26 {
        fill: #85929c;
      }

      .cls-17 {
        fill: #233848;
      }

      .cls-18, .cls-28 {
        fill: #374b59;
      }

      .cls-19, .cls-23 {
        fill: #4a5a65;
      }

      .cls-20, .cls-24 {
        fill: #3c4852;
      }

      .cls-21 {
        fill: #4d5c67;
      }

      .cls-22 {
        fill: #404e58;
      }

      .cls-25 {
        fill: #616e79;
      }

      .cls-29 {
        fill: #9aaab7;
      }

      .cls-30 {
        fill: #86939d;
      }

      .cls-31 {
        fill: #cfdae3;
      }
    </style>
  </defs>
  <path class="cls-1" d="M61.377,70.275V109.35l38.263-.207V66.412Z"/>
  <path id="Shape_9_copy" data-name="Shape 9 copy" class="cls-2" d="M58.377,70.275V109.35l38.263-.207V66.412Z"/>
  <rect class="cls-3" x="61" y="101" width="38" height="3"/>
  <path class="cls-4" d="M61,79s7.775,12.389,16,10c10.264-2.981,22-10,22-10V74L70,72l-9-1v8Z"/>
  <path class="cls-1" d="M16.178,139.816V116.052S14.91,103.863,28.446,103.9l96.2,0.273s11.622,0.339,11.622,11v16.452Z"/>
  <path id="Shape_7_copy" data-name="Shape 7 copy" class="cls-2" d="M15.178,142.808V119.045s-1.268-12.19,12.268-12.151l96.2,0.272s11.622,0.339,11.622,11v16.451Z"/>
  <path id="Shape_10_copy" data-name="Shape 10 copy" class="cls-5" d="M108.124,38.753l3.452,17.406,10.4,7.589a48.841,48.841,0,0,0,9.024-4.9c-0.182.2,2.106-3.675,2.106-3.675L125,49.871V41.89l5.665-4.156,5.612,1.521L140.9,50.032a15.556,15.556,0,0,0,6.1-2.157c0.11-.019,2.365-3.866,2.365-3.866L143.784,30.1l-15.422-6.171Z"/>
  <path class="cls-6" d="M108.879,39.762l3.452,17.449L122,66l9.861-7.777-8.675-6.238-0.9-6.649,7.13-4.6,5.612,1.525,4.618,10.8,8.47-6.038-5.582-13.949L127.117,26.9Z"/>
  <path class="cls-1" d="M98.512,25.537l16.147-12.179c0.9-.68,2.412-0.317,3.372.81L126.7,23.7c0.94,1.106.973,2.539,0.075,3.2L110.682,38.774a2.6,2.6,0,0,1-3.3-.784l-8.718-9.253C97.7,27.635,97.63,26.2,98.512,25.537Z"/>
  <path id="Rectangle_5_copy" data-name="Rectangle 5 copy" class="cls-2" d="M95.512,27.6L111.659,15.39c0.9-.682,2.412-0.318,3.372.812L127.7,28.769c0.94,1.109.973,2.546,0.075,3.21l-18.093,11.9a2.592,2.592,0,0,1-3.3-.785L95.662,30.807C94.7,29.7,94.63,28.266,95.512,27.6Z"/>
  <path class="cls-4" d="M103,32s19.109-12.9,19-14-8-9-8-9L90,24l10,4Z"/>
  <path class="cls-1" d="M70.832,31.807L97.526,64.23c3.51,4.263,1.929,9.82-3.532,12.41L81.469,82.582c-5.461,2.591-12.734,1.235-16.244-3.029L38.53,47.131c-3.51-4.263-1.929-9.82,3.532-12.411l12.525-5.942C60.049,26.188,67.321,27.544,70.832,31.807Z"/>
  <path id="Rectangle_3_copy" data-name="Rectangle 3 copy" class="cls-2" d="M68.831,34.8L95.526,67.223c3.51,4.263,1.929,9.82-3.532,12.41L79.469,85.575c-5.461,2.591-12.734,1.235-16.244-3.029L36.53,50.124c-3.51-4.263-1.929-9.82,3.532-12.41l12.525-5.942C58.049,29.181,65.321,30.537,68.831,34.8Z"/>
  <path class="cls-4" d="M48,56s2.251,2.439,5,6c2.552,1.061,5.139.347,9-2,10.027-6.078,22.43-12.766,21-14L74,36,47,34.918S41.661,52.312,48,56Z"/>
  <path class="cls-1" d="M43.445,32.8L101.227,1.853c1.425-.763,4.2-1.944,6.572-0.868,4.108,1.86,7.919,6.909,7.919,6.909,2.1,3.5,1.433,7.867-1.553,9.836L58.766,55.48c-5.01,3.3-11.75,2.405-14.892-2.162l-4.6-6.685C36.066,41.97,38.014,35.713,43.445,32.8Z"/>
  <path id="Rectangle_4_copy" data-name="Rectangle 4 copy" class="cls-2" d="M43.445,35.8L101.227,4.845c1.425-.763,4.2-1.944,6.572-0.868,4.108,1.86,7.919,6.909,7.919,6.909,2.1,3.5,1.433,7.867-1.553,9.836l-55.4,37.751c-5.01,3.3-11.75,2.4-14.892-2.162l-4.6-6.685C36.066,44.963,38.014,38.706,43.445,35.8Z"/>
  <path class="cls-7" d="M31.447,174.547l104.45-.61s23.822-3.139,23.822-30.465c0-29.885-29.319-29.857-29.319-29.857S30.88,127.471,24.727,128.239,5.318,132.273,6.4,152.611C7.347,170.308,21.448,174.547,31.447,174.547Z"/>
  <rect class="cls-8" x="115" y="88" width="12" height="16"/>
  <rect id="Rectangle_10_copy" data-name="Rectangle 10 copy" class="cls-9" x="113" y="100" width="16" height="11"/>
  <rect id="Rectangle_10_copy_4" data-name="Rectangle 10 copy 4" class="cls-10" x="111" y="102" width="16" height="11"/>
  <path id="Rectangle_10_copy_3" data-name="Rectangle 10 copy 3" class="cls-2" d="M198.218,97.6l-8.976,8.108L149.018,66.395l8.976-8.108Z"/>
  <path class="cls-11" d="M168,68l-9,7-9-8,8-9Z"/>
  <path class="cls-11" d="M190,90s-6.393-1.3-8,3c-1.622,4.344,0,5,0,5l5,5,7-9Z"/>
  <path id="Shape_8_copy" data-name="Shape 8 copy" class="cls-12" d="M36.792,170.017l93.359-.87s21.292-2.709,21.292-25.578c0-25.009-26.206-24.885-26.206-24.885s-88.951,11.939-94.45,12.6-17.348,3.443-16.379,20.46C15.252,166.552,27.856,170.051,36.792,170.017Z"/>
  <path id="Shape_8_copy_2" data-name="Shape 8 copy 2" class="cls-13" d="M37.783,168l90.561-.794S149,164.728,149,143.835c0-22.848-25.421-22.734-25.421-22.734s-86.286,10.906-91.621,11.512-16.828,3.146-15.888,18.692C16.888,164.833,29.114,168.029,37.783,168Z"/>
  <path id="Shape_8_copy_3" data-name="Shape 8 copy 3" class="cls-14" d="M72,137c67.286-8.825,74.873-4.293,74.787-4.188-6.212-11.771-23.209-11.711-23.209-11.711s-86.286,10.906-91.621,11.512-16.828,3.146-15.888,18.692C16,153.248,19.081,144.436,72,137Z"/>
  <path class="cls-15" d="M36.944,134.16A16.014,16.014,0,1,1,20.89,150.174,16.034,16.034,0,0,1,36.944,134.16Z"/>
  <path id="Ellipse_1_copy_13" data-name="Ellipse 1 copy 13" class="cls-16" d="M36.944,136.16A16.014,16.014,0,1,1,20.89,152.174,16.034,16.034,0,0,1,36.944,136.16Z"/>
  <path id="Ellipse_1_copy_14" data-name="Ellipse 1 copy 14" class="cls-17" d="M36.944,143.237a6.94,6.94,0,1,1-6.957,6.939A6.948,6.948,0,0,1,36.944,143.237Z"/>
  <path id="Ellipse_1_copy_3" data-name="Ellipse 1 copy 3" class="cls-18" d="M36.944,145.237a6.94,6.94,0,1,1-6.957,6.939A6.948,6.948,0,0,1,36.944,145.237Z"/>
  <circle id="Ellipse_1_copy_7" data-name="Ellipse 1 copy 7" class="cls-19" cx="54.047" cy="43.031" r="7.328"/>
  <circle id="Ellipse_1_copy_4" data-name="Ellipse 1 copy 4" class="cls-20" cx="54.047" cy="45.031" r="7.328"/>
  <circle id="Ellipse_1_copy_9" data-name="Ellipse 1 copy 9" class="cls-21" cx="79.313" cy="69.781" r="7.344"/>
  <circle id="Ellipse_1_copy_6" data-name="Ellipse 1 copy 6" class="cls-22" cx="79.313" cy="71.781" r="7.344"/>
  <path id="Ellipse_1_copy_5" data-name="Ellipse 1 copy 5" class="cls-23" d="M102.3,8.333A6.666,6.666,0,1,1,95.619,15,6.675,6.675,0,0,1,102.3,8.333Z"/>
  <path id="Ellipse_1_copy_8" data-name="Ellipse 1 copy 8" class="cls-24" d="M102.3,10.328a6.666,6.666,0,1,1-6.683,6.666A6.675,6.675,0,0,1,102.3,10.328Z"/>
  <circle id="Ellipse_1_copy" data-name="Ellipse 1 copy" class="cls-25" cx="122.359" cy="144.422" r="21.797"/>
  <circle id="Ellipse_1_copy_12" data-name="Ellipse 1 copy 12" class="cls-26" cx="122.359" cy="146.422" r="21.797"/>
  <path id="Rectangle_10_copy_2" data-name="Rectangle 10 copy 2" class="cls-2" d="M156.434,58.95l7.767,9.169L122.548,97.111l-7.767-9.169Z"/>
  <path id="Ellipse_1_copy_10" data-name="Ellipse 1 copy 10" class="cls-24" d="M157.306,62.017a3.973,3.973,0,1,1-3.982,3.973A3.978,3.978,0,0,1,157.306,62.017Z"/>
  <path id="Ellipse_1_copy_11" data-name="Ellipse 1 copy 11" class="cls-24" d="M123.306,86.017a3.973,3.973,0,1,1-3.983,3.973A3.978,3.978,0,0,1,123.306,86.017Z"/>
  <circle id="Ellipse_1_copy_2" data-name="Ellipse 1 copy 2" class="cls-27" cx="122.375" cy="145.422" r="8.313"/>
  <circle id="Ellipse_1_copy_15" data-name="Ellipse 1 copy 15" class="cls-28" cx="122.375" cy="147.422" r="8.313"/>
  <path id="Shape_18_copy" data-name="Shape 18 copy" class="cls-29" d="M207.4,98.522s-14.329-8.815-20.265-5.095c-4.573,2.743-3.6,18.917-1.578,21s10.4-7.477,10.4-7.477Z"/>
  <path id="Shape_18_copy_3" data-name="Shape 18 copy 3" class="cls-30" d="M206.4,100.522s-14.329-8.816-20.265-5.1c-4.573,2.743-3.6,18.917-1.578,21s10.4-7.477,10.4-7.477Z"/>
  <g>
    <path class="cls-31" d="M241.359,100.264c-1.382-5.638-46.187-2.161-49.09.485-1.665,1.615-21.681,40.288-17.338,45.171,5.255,4.9,35.979-18.18,35.979-18.18S242.427,104.626,241.359,100.264Z"/>
    <path id="Shape_18_copy_2" data-name="Shape 18 copy 2" class="cls-7" d="M240.359,104.264c-1.382-5.638-46.187-2.162-49.09.485-1.665,1.615-21.681,40.288-17.338,45.171,5.255,4.9,35.979-18.18,35.979-18.18S241.427,108.626,240.359,104.264Z"/>
    <path class="cls-30" d="M205.138,117.074c18.673-13.085,35.256-20.494,36.851-16.543,1.553,3.847-11.777,17.033-29.6,29.448-17.677,12.313-33.788,19.693-36.172,16.5C173.769,143.2,186.626,130.046,205.138,117.074Z"/>
    <path class="cls-7" d="M187,138l38,4,4-33-8,4-2,22-26-3Z"/>
  </g>
</svg>
